<?xml version="1.0" standalone="no"?>
<!DOCTYPE svg PUBLIC "-//W3C//DTD SVG 1.1//EN" "http://www.w3.org/Graphics/SVG/1.1/DTD/svg11.dtd" >
<svg xmlns="http://www.w3.org/2000/svg">
<metadata>
Created by FontForge 20120731 at Fri Jul 14 17:44:05 2017
 By admin
</metadata>
<defs>
<font id="iconfont" horiz-adv-x="1024" >
  <font-face 
    font-family="iconfont"
    font-weight="500"
    font-stretch="normal"
    units-per-em="1024"
    panose-1="2 0 6 3 0 0 0 0 0 0"
    ascent="896"
    descent="-128"
    x-height="792"
    bbox="-0.5 -265 2706 1337"
    underline-thickness="0"
    underline-position="0"
    unicode-range="U+0078-EC653"
  />
<missing-glyph 
 />
    <glyph glyph-name=".notdef" 
 />
    <glyph glyph-name=".null" horiz-adv-x="0" 
 />
    <glyph glyph-name="nonmarkingreturn" horiz-adv-x="341" 
 />
    <glyph glyph-name="x" unicode="x" horiz-adv-x="1001" 
d="M281 543q-27 -1 -53 -1h-83q-18 0 -36.5 -6t-32.5 -18.5t-23 -32t-9 -45.5v-76h912v41q0 16 -0.5 30t-0.5 18q0 13 -5 29t-17 29.5t-31.5 22.5t-49.5 9h-133v-97h-438v97zM955 310v-52q0 -23 0.5 -52t0.5 -58t-10.5 -47.5t-26 -30t-33 -16t-31.5 -4.5q-14 -1 -29.5 -0.5
t-29.5 0.5h-32l-45 128h-439l-44 -128h-29h-34q-20 0 -45 1q-25 0 -41 9.5t-25.5 23t-13.5 29.5t-4 30v167h911zM163 247q-12 0 -21 -8.5t-9 -21.5t9 -21.5t21 -8.5q13 0 22 8.5t9 21.5t-9 21.5t-22 8.5zM316 123q-8 -26 -14 -48q-5 -19 -10.5 -37t-7.5 -25t-3 -15t1 -14.5
t9.5 -10.5t21.5 -4h37h67h81h80h64h36q23 0 34 12t2 38q-5 13 -9.5 30.5t-9.5 34.5q-5 19 -11 39h-368zM336 498v228q0 11 2.5 23t10 21.5t20.5 15.5t34 6h188q31 0 51.5 -14.5t20.5 -52.5v-227h-327z" />
    <glyph glyph-name="camera1" unicode="&#xec628;" 
d="M304 324.5q0 -86.5 61 -147t147 -60.5t147 60.5t61 147t-61 147.5t-147 61t-147 -61t-61 -147.5zM960 677h-224q-6 25 -10 38t-12 33.5t-17 30.5t-24 18t-33 8h-256q-18 0 -33 -8t-24 -18t-17 -30.5t-12 -33.5t-10 -38h-224q-26 0 -45 -19t-19 -45v-576q0 -27 19 -45.5
t45 -18.5h896q26 0 45 18.5t19 45.5v576q0 26 -19 45t-45 19zM512 41q-118 0 -201 83t-83 200.5t83 201t201 83.5t201 -83.5t83 -201t-83 -200.5t-201 -83zM960 485h-128v64h128v-64z" />
    <glyph glyph-name="count-down" unicode="&#xec636;" 
d="M514.5 -113q-101.5 0 -194.5 39q-89 38 -158 107t-107 159q-39 93 -39 194.5t39 194.5q38 89 107 158t158 107q93 39 194.5 39t194.5 -39q90 -38 159 -107t107 -158q39 -93 39 -194.5t-39 -194.5q-38 -90 -107 -159t-159 -107q-93 -39 -194.5 -39zM514.5 818
q-86.5 0 -165 -32.5t-140 -94t-94 -140t-32.5 -165t32.5 -165.5t94 -140t140 -93.5t165 -32.5t165.5 32.5t140 93.5t93.5 140t32.5 165.5t-32.5 165t-93.5 140t-140 94t-165.5 32.5zM500.5 210q-13.5 0 -23.5 10t-10 24v367q0 14 10 24t23.5 10t23.5 -10t10 -24v-367
q0 -14 -10 -24t-23.5 -10zM591 296q-15 0 -25 10q-9 10 -9 24t10 24l112 107q11 9 24.5 9t23.5 -10.5t9.5 -24.5t-10.5 -23l-112 -107q-10 -9 -23 -9z" />
    <glyph glyph-name="home" unicode="&#xe617;" 
d="M299 -109q-12 5 -13 5q-37 10 -60.5 39.5t-23.5 67.5q-1 51 0 261q0 16 7 25t19.5 8.5t20 -9.5t7.5 -24v-123v-122q0 -39 16.5 -55.5t55.5 -16.5h369q36 0 52.5 16.5t16.5 53.5v120v120q0 20 4 24q16 15 29 15q10 -1 16 -8.5t6 -19.5v-177q0 -74 -1 -82q0 -44 -23 -73
t-65 -41l-9 -4h-424zM505 664q-13 -20 -14 -21q-117 -117 -374 -372q-13 -13 -20.5 -13.5t-18.5 10.5t-11 18.5t11 19.5l4 4q341 338 401 398q15 15 28 15t29 -15q243 -243 401 -400q14 -13 14.5 -20.5t-11.5 -19.5q-18 -19 -37 0q-3 4 -34 35q-261 259 -344 342
q-1 1 -12 19h-12z" />
    <glyph glyph-name="image" unicode="&#xec601;" 
d="M921 830h-818q-40 0 -67.5 -27.5t-27.5 -66.5v-693q0 -39 27.5 -67t67.5 -28h818q40 0 67.5 28t27.5 67v693q0 39 -27.5 66.5t-67.5 27.5zM103 767h818q14 0 23 -9t9 -22v-371q-119 98 -244 98q-35 0 -71 -11.5t-76.5 -37t-66.5 -44.5t-72 -56q-48 -37 -74 -56t-62.5 -38
t-60.5 -19q-79 0 -155 73v462q0 13 9 22t23 9zM921 11h-818q-14 0 -23 9.5t-9 22.5v149q77 -54 155 -54q27 0 54.5 9t61.5 31t56 38t63 49q43 33 66 50t59 40.5t66 34t57 10.5q38 0 77 -13t66.5 -29t53 -36.5t34 -29t12.5 -13.5l1 1v-237q0 -13 -9 -22.5t-23 -9.5v0z
M322.5 389q52.5 0 89.5 37t37 89t-37 89t-89.5 37t-89 -37t-36.5 -89t36.5 -89t89 -37zM323 578q26 0 44.5 -18t18.5 -44.5t-18.5 -44.5t-44.5 -18t-44.5 18t-18.5 44.5t18.5 44.5t44.5 18z" />
    <glyph glyph-name="correct" unicode="&#xec625;" 
d="M409 -47q50 91 198 232.5t280 230.5l68 41q41 22 68 28q-19 42 -23.5 87.5t0.5 78.5t13 82.5t11 81.5v0q-89 -45 -190 -131l-71 -64q-91 -87 -183.5 -196t-139.5 -173t-47 -66l-120 232l-273 -132q86 -31 203 -126.5t206 -205.5v0z" />
    <glyph glyph-name="link" unicode="&#xec602;" 
d="M945 819l-4 4q-69 69 -167.5 69t-168.5 -69l-214 -214q-69 -70 -69 -168.5t69 -168.5l4 -4q11 -10 24 -21l79 79q-15 8 -26 20l-4 3q-37 38 -37 91.5t37 90.5l214 215q38 37 91.5 37t90.5 -37l4 -4q38 -38 38 -91.5t-38 -90.5l-97 -97q26 -62 24 -130l150 150
q70 69 70 167.5t-70 168.5zM629 510q-11 11 -24 21l-79 -78q14 -9 26 -20l4 -4q37 -37 37 -90.5t-37 -91.5l-214 -214q-38 -38 -91.5 -38t-90.5 38l-4 4q-38 38 -38 91t38 91l97 97q-26 62 -25 130l-149 -150q-70 -69 -70 -168t70 -168l4 -4q69 -69 167.5 -69t168.5 69
l214 214q69 69 69 168t-69 168z" />
    <glyph glyph-name="close" unicode="&#xec620;" 
d="M68 876l936 -935l-49 -48l-935 935zM1004 828l-936 -935l-48 48l935 935z" />
    <glyph glyph-name="jiantou" unicode="&#xe632;" 
d="M592 -207l-537 506l536 508l34 -35l-500 -473l499 -471z" />
    <glyph glyph-name="search" unicode="&#xec615;" 
d="M993 -103q-9 -9 -21.5 -9t-21.5 9l-253 254q-124 -93 -260 -93q-116 3 -212.5 58t-152 149.5t-55.5 206.5q0 110 55 204t151 149t208 55t207.5 -55t151 -149t55.5 -204q0 -76 -28.5 -147.5t-76.5 -124.5l253 -253q14 -10 14 -25.5t-14 -24.5zM431 818q-95 0 -176 -46
t-129 -126t-48 -174t48 -174t129 -126t175.5 -46t176 46t129 126t47.5 174q0 95 -46.5 174.5t-127.5 125.5t-178 46z" />
    <glyph glyph-name="jiantou12" unicode="&#xec645;" 
d="M239 392l491 -478l55 54l-435 424l435 424l-55 54z" />
    <glyph glyph-name="coupon" unicode="&#xec613;" 
d="M986 495q18 13 23 24t5 32v167q0 35 -24.5 59.5t-59.5 24.5h-836q-35 0 -59.5 -24.5t-24.5 -59.5v-167q0 -22 5 -34t23 -22q35 -16 59.5 -44t24.5 -67q0 -84 -82 -111q-30 -19 -30 -56v-167q0 -35 24.5 -59.5t59.5 -24.5h836q35 0 59.5 24.5t24.5 59.5v167q0 22 -6 32.5
t-22 23.5q-47 23 -65.5 47.5t-18.5 63.5t18 62.5t66 48.5zM958 227v-150q0 -23 -16.5 -39t-39.5 -16h-780q-23 0 -39.5 16t-16.5 39v150q50 18 81 60.5t31 96.5t-31 96.5t-81 60.5v149q0 24 16.5 40t39.5 16h780q23 0 39.5 -16t16.5 -40v-149q-50 -18 -81 -60.5t-31 -96.5
t31 -96.5t81 -60.5zM665 440h-105l114 122q9 10 0 20l-18 20q-9 9 -17 0l-127 -137l-127 137q-9 9 -18 0l-17 -20q-9 -10 0 -19l114 -123h-105q-6 0 -10 -4t-4 -10v-28q0 -6 4 -10t10 -4h125v-56h-125q-6 0 -10 -4t-4 -10v-28q0 -5 4 -9t10 -4h125v-98q0 -6 4 -10t10 -4h28
q6 0 10 4t4 10v98h125q6 0 10 4t4 9v28q0 6 -4 10t-10 4h-125v56h125q6 0 10 4t4 10v28q0 6 -4 10t-10 4z" />
    <glyph glyph-name="sousuo" unicode="&#xe600;" 
d="M893 365.5q0 90.5 -35.5 173.5t-95.5 142.5t-142.5 95t-173 35.5t-173.5 -35.5t-142.5 -95t-95 -142.5t-35.5 -173.5t35.5 -173t95 -142.5t142.5 -95.5t173.5 -35.5t173 35.5t142.5 95.5t95.5 142.5t35.5 173zM53 366q0 107 52.5 197.5t143 143t197.5 52.5t198 -52.5
t143.5 -143t52.5 -197.5t-52.5 -198t-143.5 -143.5t-198 -52.5t-197.5 52.5t-143 143.5t-52.5 198zM979 -204l37 37l-236 236l-37 -37z" />
    <glyph glyph-name="clear" unicode="&#xec603;" 
d="M954 718h-884q-12 0 -20.5 8t-8.5 20t8.5 20.5t20.5 8.5h884q12 0 20.5 -8.5t8.5 -20.5t-8.5 -20t-20.5 -8zM669 832h-314q-12 0 -20.5 8t-8.5 20t8.5 20.5t20.5 8.5h314q12 0 20.5 -8.5t8.5 -20.5t-8.5 -20t-20.5 -8zM384 90v485q0 12 8 20t20 8t20.5 -8t8.5 -20v-485
q0 -12 -8.5 -20.5t-20.5 -8.5t-20 8.5t-8 20.5zM583 90v485q0 12 8.5 20t20.5 8t20 -8t8 -20v-485q0 -12 -8 -20.5t-20 -8.5t-20.5 8.5t-8.5 20.5zM184 632q12 0 20 -8.5t8 -20.5v-599q0 -24 17 -40.5t40 -16.5h486q23 0 40 16.5t17 40.5v599q0 12 8 20.5t20 8.5t20.5 -8.5
t8.5 -20.5v-628q0 -35 -25 -60t-61 -25h-542q-36 0 -61 25t-25 60v628q0 12 8.5 20.5t20.5 8.5z" />
    <glyph glyph-name="geren" unicode="&#xe6896;" 
d="M541 354zM257 560q0 103 74 175.5t179 72.5t179.5 -72.5t74.5 -175.5t-74.5 -176t-179.5 -73t-179 73t-74 176v0v0zM212 560q0 -87 48 -159t126 -107q-131 -37 -219 -140t-102 -237h45q17 148 131.5 249t269 101t269 -101t131.5 -249h45q-14 134 -102 237t-219 140
q78 35 126 107t48 159q0 121 -87.5 206.5t-211 85.5t-211 -85.5t-87.5 -206.5v0v0zM212 560z" />
    <glyph glyph-name="jiantou1" unicode="&#xe63b;" 
d="M411 -32q0 13 8 21l384 390l-384 393q-8 9 -8 21t9 21t21 8.5t21 -9.5l404 -413q8 -9 8 -21t-8 -21l-404 -410q-9 -9 -21.5 -9t-21 8.5t-8.5 20.5v0zM229 687q0 8 6 14t14.5 6t13.5 -6l301 -308q6 -6 6 -14t-6 -14l-300 -306q-5 -6 -13.5 -6t-14.5 5.5t-6 14t6 14.5
l286 292l-287 294q-6 6 -6 14z" />
    <glyph glyph-name="magic-cube" unicode="&#xec637;" 
d="M8 307l78 36v-151l-78 -20v135zM108 150l83 18v-165h-83v147zM108 599l83 66v-215l-83 -40v189zM108 354l83 38v-173l-83 -21v156zM225 691l112 90v-262l-112 -54v226zM8 127l78 17v-141h-78v124zM225 175l112 25v-197h-112v172zM8 519l78 62v-181l-78 -38v157zM225 407
l112 53v-203l-112 -29v179zM1016 691l-30 -688h-18l-18 644l-341 55l-3 -196l154 -20l3 192l48 -8l-2 -191l147 -19v-58l-148 17l-1 -181l149 -10v-39l-150 7l-2 -193h-49l2 195l-155 7l-3 -187h-48v189l-185 9v53l185 -13v193l-185 21v67l185 -24v198l-178 28l-7 37z
M604 443l-1 -190l154 -11l3 183zM604 443z" />
    <glyph glyph-name="guanbi" unicode="&#xec644;" 
d="M512 896q-139 0 -257 -68.5t-186.5 -186.5t-68.5 -257t68.5 -257t186.5 -186.5t257 -68.5t257 68.5t186.5 186.5t68.5 257t-68.5 257t-186.5 186.5t-257 68.5zM731 205l-40 -40l-179 179l-179 -179l-40 40l179 179l-179 179l40 40l179 -179l179 179l40 -40l-179 -179z
" />
    <glyph glyph-name="close1" unicode="&#xec623;" 
d="M1008 -30l-76 -77l-420 420l-420 -420l-76 77l420 419l-420 420l76 76l420 -419l420 419l76 -76l-420 -420z" />
    <glyph glyph-name="gouwuche" unicode="&#xe60c;" 
d="M392.5 29q-35.5 0 -61 -25.5t-25.5 -61t25.5 -61t61 -25.5t61 25.5t25.5 61t-25.5 61t-61 25.5zM392.5 -107q-20.5 0 -35 14.5t-14.5 35t14.5 35t35 14.5t35 -14.5t14.5 -35t-14.5 -35t-35 -14.5zM759 29q-36 0 -61.5 -25.5t-25.5 -61t25.5 -61t61.5 -25.5t61 25.5t25 61
t-25 61t-61 25.5zM758.5 -107q-20.5 0 -35 14.5t-14.5 35t14.5 35t35 14.5t35 -14.5t14.5 -35t-14.5 -35t-35 -14.5zM901 569h-662q-1 0 -5.5 14.5t-12.5 43.5t-13 47q-6 18 -17 29.5t-19 13.5l-8 3h-67q-3 0 -7.5 0.5t-8.5 -4.5t-5 -16q0 -10 4.5 -15.5t8.5 -6.5l5 -1h43
q12 0 20.5 -6.5t15.5 -25t12.5 -42.5t14 -68t17.5 -91t24.5 -123.5t32.5 -154.5q15 -65 67 -71q13 -1 13 0h456q18 0 32 6t21 14t11 17t5 13.5t1 6.5q66 301 77 362q0 48 -46 54zM911 479q-3 -26 -20 -101.5t-32.5 -139t-15.5 -62.5q0 -1 -1 -3.5t-4.5 -9.5t-8.5 -12t-14 -9
t-19 -4h-429q-1 1 -4.5 0t-10.5 1t-13.5 5.5t-14 13t-11.5 22.5l-70 346h638h4.5t9 -1.5t10 -6t7 -14t-0.5 -25.5z" />
    <glyph glyph-name="heart1" unicode="&#xec649;" 
d="M513 -60q-7 0 -13 3q-15 8 -39.5 23t-87.5 60.5t-116 93.5q-107 97 -168 195q-79 125 -79 247q0 114 81.5 195.5t196.5 81.5q80 0 155 -54q43 -32 70 -72q27 40 70 72q74 54 155 54q115 0 196.5 -81.5t81.5 -195.5q0 -122 -79 -247q-61 -98 -168 -195
q-54 -48 -116.5 -93.5t-87 -60.5t-39.5 -23q-6 -3 -13 -3v0zM288 786q-93 0 -159 -65.5t-66 -158.5q0 -58 20.5 -116.5t55.5 -110.5t72 -93.5t81 -81.5q102 -92 221 -163q119 71 221 163q44 40 80.5 81.5t72 93.5t56 110.5t20.5 116.5q0 93 -66 158.5t-159 65.5
q-65 0 -123.5 -43.5t-76.5 -96.5q-6 -18 -25 -18t-25 18q-18 53 -76.5 96.5t-123.5 43.5z" />
    <glyph glyph-name="restore" unicode="&#xec624;" horiz-adv-x="1241" 
d="M1234 423l-146 -149q-9 -9 -21.5 -9t-21.5 9l-144 149q-9 10 -8.5 18t2.5 10l12 12h132q-28 152 -145.5 253t-273.5 101q-119 0 -219 -61.5t-156 -164.5l-72 30q64 124 184 199.5t263 75.5q124 0 231.5 -57t177.5 -156t88 -220h111q23 -23 6 -40v0zM197 455l145 -150
q17 -16 -6 -39h-126q38 -138 151.5 -226.5t258.5 -88.5q109 0 203 52.5t153 141.5l73 -30q-68 -111 -181.5 -177t-247.5 -66q-177 0 -313.5 111.5t-176.5 282.5h-115q-1 1 -4 3.5t-4 3.5t-3 3.5t-2.5 4t-1.5 4t0 4.5t1.5 4.5t2.5 5.5t5 6l144 150q9 9 22 9t22 -9v0zM197 455
z" />
    <glyph glyph-name="text-list" unicode="&#xec622;" 
d="M121 628q-47 0 -81 33.5t-34 81t34 81t81 33.5t81 -33.5t34 -81t-34 -81t-81 -33.5zM121 787q-18 0 -31 -12.5t-13 -31.5q0 -20 12.5 -32.5t31.5 -12.5t31.5 12.5t12.5 32.5q0 19 -13 31.5t-31 12.5zM121 274q-47 0 -81 34t-34 81.5t34 81t81 33.5t81 -33.5t34 -81
t-34 -81.5t-81 -34zM121 434q-18 0 -31 -13t-13 -32t12.5 -31.5t31.5 -12.5t31.5 12.5t12.5 31.5t-13 32t-31 13zM121 -79q-47 0 -81 33.5t-34 81t34 81t81 33.5t81 -33.5t34 -81t-34 -81t-81 -33.5zM121 80q-18 0 -31 -12.5t-13 -31.5q0 -20 12.5 -32.5t31.5 -12.5
t31.5 12.5t12.5 32.5q0 19 -13 31.5t-31 12.5zM980 724h-608q-15 0 -25.5 10.5t-10.5 24.5t10.5 24.5t25.5 10.5h608q14 0 24.5 -10.5t10.5 -24.5t-10.5 -24.5t-24.5 -10.5zM980 -25h-608q-15 0 -25.5 10.5t-10.5 24.5t10.5 24.5t25.5 10.5h608q14 0 24.5 -10.5t10.5 -24.5
t-10.5 -24.5t-24.5 -10.5zM980 349h-608q-15 0 -25.5 10.5t-10.5 25t10.5 25t25.5 10.5h608q14 0 24.5 -10.5t10.5 -25t-10.5 -25t-24.5 -10.5z" />
    <glyph glyph-name="title" unicode="&#xec604;" 
d="M56 887v-307l40 2q10 76 60.5 132.5t96.5 68.5q51 12 168 -18v-760q0 -19 -19.5 -35t-39.5 -23l-20 -6l-80 -1l-2 -56h504v55h-92q-19 1 -43.5 18t-40 32t-15.5 16v760q4 2 10.5 4t29 7.5t42.5 7.5t50.5 3.5t54.5 -4.5q25 -5 52 -28t46.5 -52.5t36 -58t24.5 -48.5l9 -20
h40v311h-912v0z" />
    <glyph glyph-name="caidan" unicode="&#xe60d;" 
d="M0 652h1024v-64h-1024v64zM0 12h1024v-64h-1024v64zM0 332h1024v-64h-1024v64z" />
    <glyph glyph-name="plus" unicode="&#xec621;" 
d="M937 445h-366v366h-120v-366h-366v-120h366v-366h120v366h366v120z" />
    <glyph glyph-name="sort-arrow" unicode="&#xec642;" 
d="M512 -53q-121 0 -223 58.5t-160.5 160.5t-58.5 223.5t58.5 223t160.5 160.5t223 59t223 -59t161 -160.5t59 -223t-59 -223.5t-161 -160.5t-223 -58.5zM512 -116q103 0 196.5 40t161 108t108 161.5t40.5 196t-40.5 196t-108 161.5t-161 108t-196 40t-196.5 -40
t-161.5 -108t-108 -161.5t-40.5 -196t40.5 -196t108 -161.5t161.5 -108t196 -40v0zM588 118q9 -10 26 -10t31 10q9 9 9 25.5t-9 30.5l-221 222l227 227q10 10 10 26.5t-10 30.5q-12 13 -25 13t-25 -13l-253 -253q-13 -12 -13 -25t13 -25l240 -259v0z" />
    <glyph glyph-name="bolt" unicode="&#xec646;" horiz-adv-x="1345" 
d="M721 590h298l-712 -855l237 602h-265l265 711h513zM2695 1324zM2691 1323.5q0 -4.5 4.5 -4.5t4.5 4.5t-4.5 4.5t-4.5 -4.5zM2690 1323.5q0 -5.5 5.5 -5.5t5.5 5.5t-5.5 5.5t-5.5 -5.5zM2695 1324v0v0v0v0v0v0v0v0v0v0v0v0v0v0v0v0v0v0v0v0v0v0v0v0v0v0v0v0v0v0v0v0v0v0v0
v0l2 13zM2684 1324v0q0 -5 3.5 -8t8 -3t7.5 3t3 8v0v0q0 4 -3 7.5t-7.5 3.5t-8 -3.5t-3.5 -7.5v0zM2690 1323.5q0 -5.5 5.5 -5.5t5.5 5.5t-5.5 5.5t-5.5 -5.5zM2691 1323.5q0 -4.5 4.5 -4.5t4.5 4.5t-4.5 4.5t-4.5 -4.5zM2695 1324v0v0v0v0v0v0v0v0v0v0v0v0v0v0v0v0v0v0v0v0
v0v0v0v0v0v0v0v0v0v0v0v0v0v0v0v0l2 13z" />
    <glyph glyph-name="slide" unicode="&#xec643;" 
d="M412 383q40 0 68.5 28t28.5 67t-28.5 67t-68.5 28t-68.5 -28t-28.5 -67.5t28 -66.5q29 -28 69 -28zM412 538q26 0 44 -17.5t18 -42.5t-18 -42.5t-44 -17.5t-44 18q-18 17 -18 42t18 42.5t44 17.5zM1021 613q0 25 -15 45q-18 22 -45 22h-46v2q0 29 -20.5 45.5t-54.5 16.5
h-639h-10q-40 1 -54 -6q-26 -12 -27 -51q-1 -3 -1 -7h-43q-26 0 -44.5 -18.5t-18.5 -43.5v-451h-1v-17q0 -26 18.5 -44t44.5 -18h44q1 -34 17 -50q14 -14 46 -14h6h7h655q13 0 21.5 1.5t21 6t20.5 16.5t11 31h47q23 0 41 17q19 20 19 48v12v0v457zM109 123h-44
q-10 0 -17.5 6t-9.5 15v474q0 11 8 19t20 8h43v-522v0zM880 96q0 -25 -9 -32q-7 -5 -31 -5h-655h-7q-24 0 -28 4q-6 6 -6 30v0v9v0v560v23q1 18 8 21.5t38 2.5h10h640q14 0 23 -3t12 -8t4 -8t1 -8v-586zM977 121q-7 -7 -16 -7h-46v531h46q11 0 18 -10t7 -22v-457v-12
q0 -14 -9 -23zM814 468q-14 11 -31 7q-68 -17 -117 -63q-28 -26 -63 -80q-19 -29 -29 -39.5t-21 -10.5q-29 0 -68 23l-4 2q-17 11 -27.5 16.5t-30 11t-40.5 5.5q-54 0 -121 -52q-38 -29 -63 -58l-4 -5v-58q0 -15 11 -25.5t26 -10.5h560q15 0 26 10.5t11 25.5v272
q0 18 -15 29zM794 167v0q-1 -1 -2 -1h-560q-1 0 -2 1v0v45q15 16 34 33.5t55 38.5t64 21q35 0 80 -27l4 -2q47 -29 86 -29q17 0 32 10t23.5 21t24.5 35q15 25 25.5 38.5t30 34t45 34t57.5 21.5v0h2q1 -1 1 -2v-272v0z" />
    <glyph glyph-name="spike" unicode="&#xec614;" 
d="M515 814q-93 0 -178.5 -36.5t-147 -98.5t-98 -147t-36.5 -178.5t36.5 -179t98 -147t147 -98t179 -36.5t178.5 36.5t146.5 98t98 147t36.5 179t-36.5 178.5t-98 147t-146.5 98.5t-179 36.5v0zM515 -47q-108 0 -200 54t-146 146t-54 200.5t54 200.5t146 145.5t200.5 53.5
t200.5 -53.5t145.5 -145.5t53.5 -200.5t-53.5 -200.5t-145.5 -146t-201 -54v0zM97 692q12 65 62 103t109 27q12 -2 22 5t12.5 19t-4.5 22.5t-19 12.5q-83 16 -154 -36t-88 -141q-2 -13 5 -23t19 -13h6q11 0 19 7t11 17v0v0zM991 704q-17 89 -87.5 141t-153.5 36
q-13 -2 -20 -12.5t-4.5 -22.5t13 -19t22.5 -5q58 11 108.5 -27t62.5 -103q2 -10 10.5 -17t18.5 -7h6q12 3 19 13t5 23v0zM745 364h-210v232q0 12 -9 21t-21.5 9t-21 -9t-8.5 -21v-263q0 -12 8.5 -21t21.5 -9h240q12 0 21 9t9 21.5t-9 21.5t-21 9v0z" />
    <glyph glyph-name="camera" unicode="&#xec627;" 
d="M905 711h-110q-14 32 -19 44q-13 27 -24.5 37t-34.5 10h-407q-24 0 -37.5 -12.5t-28.5 -48.5q-4 -11 -12 -30h-113q-46 0 -78.5 -33t-32.5 -79v-511q0 -46 32.5 -78.5t78.5 -32.5h786q46 0 78.5 32.5t32.5 78.5v511q0 46 -32.5 79t-78.5 33zM49 599q0 29 20.5 50t49.5 21
h121q17 0 23 14t14 32q1 4 6 15q1 1 2 4q10 26 25 26h406q13 0 21 -18v-2q8 -18 11 -23q13 -30 15 -34q6 -14 20 -14h122q29 0 49.5 -21t20.5 -50v-511q0 -29 -20.5 -49.5t-49.5 -20.5h-786q-29 0 -49.5 20.5t-20.5 49.5v511v0v0zM512 114q95 0 162 67.5t67 162t-67 162
t-162 67.5t-162 -67.5t-67 -162t67 -162t162 -67.5zM512 533q78 0 133.5 -55.5t55.5 -134t-55.5 -134t-133.5 -55.5t-133.5 55.5t-55.5 134t55.5 134t133.5 55.5zM808 532h51q8 0 14.5 6t6.5 14.5t-6.5 14.5t-14.5 6h-51q-9 0 -15 -6t-6 -14.5t6 -14.5t15 -6z" />
    <glyph glyph-name="announcement" unicode="&#xec617;" 
d="M955 626q-59 106 -159 169q-11 7 -20 7q-14 0 -23.5 -10.5t-9.5 -25.5q0 -20 19 -31q86 -54 136.5 -147t50.5 -199t-50.5 -199t-136.5 -147q-20 -12 -20 -32q0 -15 10 -25.5t24 -10.5q8 0 19 7q101 62 160 169q61 110 61 238q0 127 -61 237zM833 389q0 75 -36 140
q-34 62 -94 99v0q-11 6 -19 6q-14 0 -23.5 -10.5t-9.5 -24.5q0 -21 16 -31q46 -28 72 -76t26 -103q0 -57 -27 -105.5t-74 -75.5v0q-16 -10 -16 -30q0 -15 10 -25.5t24 -10.5v0v0q8 0 17 5v0q62 36 98 101.5t36 140.5zM554 881q-8 4 -17 4q-14 0 -25 -9h-1q-56 -48 -115 -94
q-110 -86 -141 -97h-132l-2 -1h-67q-14 0 -24 -10t-10 -25v-521q0 -15 10 -25t24 -10h225q30 -13 127 -97q49 -42 102 -92l2 -1v0q11 -11 27 -11q8 0 16 3q25 12 25 39v28v60.5v60v29.5q0 28 -1 731q0 27 -23 38zM511 117l-1 -113q-26 23 -49 43q-85 73 -121.5 95t-56.5 22
h-1h-1v0h-1h-169q-15 0 -19.5 5t-4.5 22v399q0 13 3 18t14 5h152q20 0 59 22t131 93q32 25 64 51q1 -647 1 -662v0z" />
    <glyph glyph-name="editor" unicode="&#xec633;" 
d="M250 77q28 0 57 19h7l-180 179v-6q-19 -29 -19 -58l-64 -198zM890 794l-58 57q-24 24 -57.5 24t-57.5 -24l-58 -57l173 -173l58 57q24 24 24 58t-24 58v0v0v0zM774 563l-172 173l-404 -403l173 -173zM0 -45h1024v-64h-1024v64z" />
    <glyph glyph-name="page" unicode="&#xec631;" 
d="M983 -120h-775q-21 0 -27.5 14.5t-6.5 39.5v739v5v5v5t0.5 5.5t1 4.5t1.5 4.5t2 4t3 4.5l4 4q9 8 38 8h673q5 0 24.5 1.5t32.5 1t29.5 -3t25 -11t8.5 -23.5v-700q0 -3 1 -21.5t0.5 -30t-3 -26.5t-10.5 -22.5t-22 -7.5v0zM954 660h-712q-4 0 -4.5 -1t-0.5 -3v-3v-710h714z
M355 533h477q17 0 28.5 -12t8.5 -27t-21 -22q-6 -2 -493 -2q-20 0 -28.5 16t0 31.5t28.5 15.5zM355 344h477q17 0 28.5 -12.5t8.5 -27.5t-21 -22q-6 -2 -493 -2q-20 0 -28.5 16t0 32t28.5 16zM355 133h477q17 0 28.5 -12.5t8.5 -27.5t-21 -22q-6 -2 -493 -2q-20 0 -28.5 16
t0 32t28.5 16zM785 828h-712q-4 0 -4.5 -0.5t-0.5 -3.5v-3v-550v-142l-0.5 -6t0.5 -8.5t4 -2.5h47q4 0 6 -0.5t4 -0.5t2.5 -2t0.5 -2.5v-4.5v-7v-45q0 -2 -27 -2q-5 0 -21.5 -1t-27.5 -1t-24 3.5t-19 10.5q-7 9 -9 24t-0.5 39t1.5 26v706q0 7 1.5 12.5t4.5 9t5.5 6.5t8 4.5
t8.5 2.5t10 1.5t9.5 0.5h10.5h9h703q3 0 14.5 0.5t18 0t15 -2.5t13.5 -6q7 -5 10 -14.5t3 -15.5t-0.5 -19.5t-0.5 -16.5q0 -1 0.5 -8l1 -14t0 -14.5t-1.5 -12t-3 -4.5q-60 0 -60 1v62zM785 828z" />
    <glyph glyph-name="line" unicode="&#xec610;" 
d="M75 457h875q28 0 47.5 -20t19.5 -47.5t-19.5 -47.5t-47.5 -20h-875q-28 0 -48 20t-20 47.5t20 47.5t48 20z" />
    <glyph glyph-name="pictures" unicode="&#xec611;" 
d="M629 499q41 0 69.5 29t28.5 69.5t-28.5 69t-69.5 28.5t-69.5 -28.5t-28.5 -69t28.5 -69.5t69.5 -29zM629 630q14 0 23.5 -9.5t9.5 -23t-10 -23t-23.5 -9.5t-23 9.5t-9.5 23t9.5 23t23.5 9.5zM7 761v-655q0 -27 19 -46t46 -19h786q27 0 46.5 19t19.5 46v655q0 27 -19.5 46
t-46.5 19h-786q-27 0 -46 -19t-19 -46zM111 106l194 305l155 -185l133 94l218 -214h-700v0zM105 761h721q13 0 22.5 -9.5t9.5 -23.5v-576l-258 253l-129 -91l-173 208l-226 -355v561q0 14 10 23.5t23 9.5v0zM963 731h-7v-666q0 -24 -16.5 -40.5t-39.5 -16.5h-797v-7
q0 -23 16.5 -39.5t39.5 -16.5h804q23 0 39.5 16.5t16.5 39.5v673q0 24 -16.5 40.5t-39.5 16.5z" />
    <glyph glyph-name="resumed" unicode="&#xec630;" horiz-adv-x="1070" 
d="M125 502h3q39 134 152 220t257 86q143 0 255.5 -85.5t152.5 -218.5v0q7 -16 24 -16q12 0 19.5 8t7.5 20q0 3 -1 8v0v0q-1 2 -1 3q-46 147 -172 241t-285 94q-163 0 -290 -97t-171 -249l-67 19l53 -160l137 106zM1061 229l-54 159l-137 -106l74 -21
q-40 -132 -152.5 -216.5t-254.5 -84.5t-254 84t-153 216v0q-6 20 -26 20q-11 0 -19 -8t-8 -19q0 -2 1 -5h-1q45 -150 172 -246t288 -96q160 0 287 95.5t172 245.5z" />
    <glyph glyph-name="editor1" unicode="&#xec653;" 
d="M972.5 498q-10.5 0 -18 -7.5t-7.5 -18.5v0v0v0v-459q0 -21 -15.5 -36t-36.5 -15h-494v0h-282q-21 0 -36 15t-15 36v749q0 21 15 36t36 15h500q11 0 18.5 8t7.5 18.5t-7.5 18t-18.5 7.5h-505q-40 0 -69 -28.5t-29 -69.5v-253v0v-506q0 -41 29 -69.5t69 -28.5h786
q41 0 69.5 28.5t28.5 69.5v464q0 11 -7.5 18.5t-18 7.5zM492 167l492 491q22 22 20 55t-26 57l-47 47q-24 24 -57 26t-55 -20l-492 -492zM856 786q8 9 20.5 8t21.5 -10l47 -46q9 -10 10 -22.5t-8 -20.5l-54 -55l-91 92zM854 602l-366 -366l-91 91l366 367zM327 330l-50 -185
q-4 -13 5.5 -22.5t22.5 -6.5l185 51l-37 38l-121 -33l33 120z" />
    <glyph glyph-name="preview" unicode="&#xec626;" 
d="M1001 452q-5 9 -15 22t-42 47t-69 63q-72 57 -152 90q-102 41 -211 41t-210 -41q-81 -33 -153 -90q-36 -29 -68 -63t-42 -47t-15 -22q-20 -29 -18.5 -68t23.5 -67q51 -66 135 -131q75 -58 152 -91q99 -41 196.5 -41t195.5 41q78 33 152 91q85 65 136 131q21 28 22.5 67
t-17.5 68zM950 353q-6 -7 -16 -19.5t-43 -44t-68 -58.5q-155 -119 -311 -119t-311 119q-79 61 -126 122q-10 13 -11 33.5t8 33.5q5 7 14 19t38.5 43t62.5 58q148 117 325 117t326 -117q33 -27 62.5 -58t38.5 -43t13 -19q9 -13 8.5 -33.5t-10.5 -33.5zM512 564
q-74 0 -126 -52.5t-52 -127t52 -127.5t126 -53t126 53t52 127.5t-52 127t-126 52.5zM512 263q-50 0 -85 35.5t-35 86t35 86t85 35.5t85 -35.5t35 -86t-35 -86t-85 -35.5z" />
    <glyph glyph-name="service" unicode="&#xec651;" 
d="M521 101q8 0 15 1q36 4 64 27.5t40 57.5q2 6 -4 9t-9 -3q-2 -4 -7.5 -9.5t-29.5 -16.5t-57 -15q-16 -2 -32 -2q-52 0 -75 19q-4 4 -9 0.5t-2 -9.5q17 -27 45.5 -43t60.5 -16zM919 560h-0.5h-0.5q-33 142 -147 235t-261 93q-152 0 -268 -98t-144 -246q-28 -5 -46 -26.5
t-18 -50.5v-156q0 -32 22.5 -55.5t55.5 -23.5q36 0 60 29q26 -68 76.5 -121t117.5 -82q1 3 3.5 6t4.5 3t4 -1q-27 20 -64 76.5t-47 127.5q-6 36 16.5 67t54.5 37t99.5 19.5t103.5 19.5q64 12 91 71q9 21 13 55q1 7 8 7q4 0 7 -4l2 2q78 -115 87 -216q7 -87 -6.5 -141.5
t-68.5 -105.5h-1q-2 -2 -2 -5t3 -5q1 0 1.5 -0.5l0.5 -0.5h2h1q1 1 2 1.5t2 0.5q60 33 104.5 87t65.5 120q18 -27 50 -34q-24 -112 -116.5 -181.5t-221.5 -81.5q-8 20 -25.5 31.5t-38.5 11.5q-29 0 -49 -19.5t-20 -47.5t20 -48t49 -20q22 0 40 13.5t25 33.5q149 12 254.5 96
t130.5 217q22 9 35.5 29t13.5 44v157q0 33 -23.5 56.5t-57.5 23.5zM847 515q-38 105 -130.5 170.5t-207.5 65.5q-114 0 -206 -65t-131 -169q-2 2 -9 8q22 126 120 210t227 84q128 0 225.5 -83t119.5 -209q-5 -6 -8 -12zM366 58v0v0z" />
    <glyph glyph-name="map" unicode="&#xec619;" 
d="M517 248q-13 0 -23 9q-9 8 -23.5 22t-48 53t-61 78t-53 93t-33.5 104q-20 121 46 199q36 42 91 64q49 19 105 19q62 0 116 -23t87 -64q64 -79 40 -196q-11 -50 -37 -104t-53 -92.5t-60 -77t-46.5 -52.5t-22.5 -23q-10 -9 -24 -9zM517 821q-44 0 -82 -16t-61 -44
q-46 -53 -32 -143q7 -41 28 -86.5t49.5 -84.5t51.5 -66t46 -50q32 33 62 70.5t66 100.5t47 118q18 85 -25 138q-24 30 -63.5 46.5t-86.5 16.5zM51 -102q-12 0 -21 7q-14 10 -14 27v421q0 12 8.5 22t21.5 12l159 23q14 2 25.5 -6.5t13.5 -22.5t-6.5 -25.5t-22.5 -13.5
l-130 -19v-345l260 72q9 2 18 0l308 -82l274 77v284l-112 -14q-14 -2 -25 6.5t-13 22.5t7 25.5t23 13.5l150 18q16 2 27.5 -8t11.5 -26v-348q0 -12 -7 -21t-18 -12l-309 -87q-9 -2 -18 0l-308 82l-294 -82q-5 -1 -9 -1v0z" />
    <glyph glyph-name="store" unicode="&#xec647;" 
d="M883 838l-8 12h-706l-8 -10q-52 -66 -85 -127.5t-46 -106t-14.5 -85.5t4.5 -66.5t17 -46.5q23 -48 66.5 -76t92.5 -28h6q99 4 168 74q61 -70 153 -70q95 0 157 74q93 -76 177 -76q71 0 121 58q25 29 33 71t3 83t-20 88.5t-31 84t-36.5 73.5t-29 51t-14.5 23v0zM935 400
q-33 -39 -79 -39q-31 0 -68.5 18t-56 32.5t-33.5 27.5v189q0 1 0.5 1.5l0.5 0.5q0 11 -8.5 19.5t-19.5 8.5t-19.5 -8.5t-8.5 -19.5v0v-206q-45 -60 -120 -60q-34 0 -63 14.5t-41 27t-20 25.5v199q0 11 -8 19.5t-19.5 8.5t-19.5 -8.5t-8 -19.5v-198q-11 -14 -25 -27
t-47.5 -29t-71.5 -17h-4v0q-30 0 -61 18.5t-49 54.5q-11 22 -14.5 51t3 73.5t37 106.5t84.5 132h649q19 -31 38.5 -67.5t39.5 -85t30 -91.5t7 -84.5t-25 -66.5v0zM885 272q-11 0 -19.5 -8t-8.5 -19v-201q0 -23 -16 -39.5t-40 -16.5h-571q-24 0 -40 16.5t-16 39.5v201
q0 11 -8.5 19t-20 8t-19.5 -8t-8 -19v-207q0 -44 31 -75t75 -31h583q44 0 75 31t31 75v207q0 11 -8 19t-20 8v0zM885 272z" />
    <glyph glyph-name="blank" unicode="&#xec612;" 
d="M515 -56h-368q-30 0 -51.5 20.5t-21.5 49.5v741q0 29 21.5 49t51.5 20h367v63h-367q-56 0 -95.5 -38.5t-39.5 -93.5v-741q0 -55 39.5 -93.5t95.5 -38.5h367v62h1zM515 824h368q30 0 51 -20t21 -49v-741q0 -29 -21 -49.5t-51 -20.5h-368v-62h368q56 0 95.5 38.5t39.5 93.5
v741q0 55 -39.5 93.5t-95.5 38.5h-368v-63z" />
    <glyph glyph-name="heart" unicode="&#xec648;" 
d="M755 829q-78 0 -143.5 -36.5t-99.5 -96.5q-34 60 -99.5 96.5t-143.5 36.5q-77 0 -137 -40.5t-90 -102t-30 -130.5q0 -64 26.5 -132t65.5 -123.5t93.5 -111t100 -93.5t95.5 -73.5t70.5 -48t33.5 -20.5q7 -4 15 -4t15 4q13 8 33.5 20.5t70.5 48t95.5 73.5t100 93.5
t93.5 111t65.5 123.5t26.5 132q0 69 -30 130.5t-90 102t-137 40.5z" />
    <glyph glyph-name="grouping" unicode="&#xec605;" 
d="M980 697h-347q-16 0 -27.5 11.5t-11.5 27.5t11.5 27t27.5 11h347q16 0 27.5 -11t11.5 -27t-11.5 -27.5t-27.5 -11.5v0zM980 697zM980 504h-347q-16 0 -27.5 11.5t-11.5 27.5t11.5 27t27.5 11h347q16 0 27.5 -11t11.5 -27t-11.5 -27.5t-27.5 -11.5v0zM980 504zM980 196
h-347q-16 0 -27.5 11t-11.5 27t11.5 27.5t27.5 11.5h347q16 0 27.5 -11.5t11.5 -27.5t-11.5 -27t-27.5 -11v0zM980 196zM980 3h-347q-16 0 -27.5 11t-11.5 27t11.5 27.5t27.5 11.5h347q16 0 27.5 -11.5t11.5 -27.5t-11.5 -27t-27.5 -11v0zM980 3zM363 427h-232
q-48 0 -81.5 34t-33.5 82v231q0 48 33.5 82t81.5 34h232q48 0 82 -34t34 -82v-231q0 -48 -34 -82t-82 -34v0zM131 813q-16 0 -27 -11.5t-11 -27.5v-231q0 -16 11 -27.5t27 -11.5h232q16 0 27 11.5t11 27.5v231q0 16 -11 27.5t-27 11.5h-232zM131 813zM363 -113h-232
q-48 0 -81.5 34t-33.5 82v231q0 48 33.5 82t81.5 34h232q48 0 82 -34t34 -82v-231q0 -48 -34 -82t-82 -34v0zM131 273q-16 0 -27 -11.5t-11 -27.5v-231q0 -16 11 -27.5t27 -11.5h232q16 0 27 11.5t11 27.5v231q0 16 -11 27.5t-27 11.5h-232zM131 273z" />
    <glyph glyph-name="correct1" unicode="&#xec632;" 
d="M1012 642l-619 -591l-381 363l80 76l301 -287l539 514z" />
    <glyph glyph-name="save" unicode="&#xec606;" 
d="M865 894h-706q-63 0 -107.5 -44.5t-44.5 -106.5v-707q0 -62 44.5 -106.5t107.5 -44.5h706q63 0 107.5 44.5t44.5 106.5v707q0 62 -44.5 106.5t-107.5 44.5zM769 833v-383h-514v383h514zM956 36q0 -37 -26.5 -64t-64.5 -27h-706q-38 0 -64.5 27t-26.5 64v707
q0 37 26.5 63.5t64.5 26.5h35v-444h636v444h35q38 0 64.5 -26.5t26.5 -63.5v-707zM634.5 482q12.5 0 21.5 9t9 22v212q0 12 -9 21t-21.5 9t-21.5 -9t-9 -21v-212q0 -13 9 -22t21.5 -9z" />
    <glyph glyph-name="product-list" unicode="&#xec607;" 
d="M385 357h-282q-40 0 -67.5 -27.5t-27.5 -66.5v-283q0 -39 27.5 -67t67.5 -28h282q40 0 67.5 28t27.5 67v283q0 39 -27.5 66.5t-67.5 27.5v0zM417 -20q0 -13 -9 -22.5t-23 -9.5h-282q-14 0 -23 9.5t-9 22.5v283q0 13 9 22t23 9h282q14 0 23 -9t9 -22v-283zM922 357h-284
q-39 0 -66.5 -27.5t-27.5 -66.5v-283q0 -39 27.5 -67t66.5 -28h284q39 0 66.5 28t27.5 67v283q0 39 -27.5 66.5t-66.5 27.5zM953 -20q0 -13 -9 -22.5t-22 -9.5h-284q-13 0 -22 9.5t-9 22.5v283q0 13 9 22t22 9h284q13 0 22 -9t9 -22v-283zM385 893h-282q-40 0 -67.5 -27.5
t-27.5 -66.5v-283q0 -39 27.5 -67t67.5 -28h282q40 0 67.5 28t27.5 67v283q0 39 -27.5 66.5t-67.5 27.5zM417 516q0 -13 -9 -22.5t-23 -9.5h-282q-14 0 -23 9.5t-9 22.5v283q0 13 9 22t23 9h282q14 0 23 -9t9 -22v-283zM922 893h-284q-39 0 -66.5 -27.5t-27.5 -66.5v-283
q0 -39 27.5 -67t66.5 -28h284q39 0 66.5 28t27.5 67v283q0 39 -27.5 66.5t-66.5 27.5zM953 516q0 -13 -9 -22.5t-22 -9.5h-284q-13 0 -22 9.5t-9 22.5v283q0 13 9 22t22 9h284q13 0 22 -9t9 -22v-283z" />
    <glyph glyph-name="text-nav" unicode="&#xec638;" 
d="M40 244h176q12 0 20.5 9t8.5 21t-8.5 20.5t-20.5 8.5h-176q-13 0 -21.5 -8.5t-8.5 -20.5t8.5 -21t21.5 -9zM275 67h-235q-13 0 -21.5 -8.5t-8.5 -20.5t8.5 -20.5t21.5 -8.5h235q12 0 20.5 8.5t8.5 20.5q1 12 -8 20.5t-21 8.5zM40 715h824q12 0 20.5 9t8.5 21t-8.5 20.5
t-20.5 8.5h-824q-13 0 -21.5 -8.5t-8.5 -20.5t8.5 -21t21.5 -9zM275 538h-235q-13 0 -21.5 -8.5t-8.5 -20.5t8.5 -20.5t21.5 -8.5h235q12 0 20.5 8.5t8.5 20.5q1 12 -8 20.5t-21 8.5zM675 -17q-90 0 -166 44.5t-120.5 121t-44.5 166.5t44.5 166t120.5 120.5t166 44.5
t166.5 -44.5t120.5 -120.5t44 -166t-44 -166.5t-120.5 -121t-166.5 -44.5zM675 598q-117 0 -200 -83t-83 -200t83 -200.5t200.5 -83.5t200.5 83.5t83 200.5t-83.5 200t-200.5 83zM821 484q-29 27 -64 28.5t-61 -23.5l-25 -24q-7 -7 -7 -16.5t7 -16.5t17.5 -7t17.5 7l24 24
q15 12 29.5 9.5t27.5 -14.5q13 -13 13 -30q0 -18 -13 -30l-78 -74q-35 -35 -59 -12q-7 7 -17 7t-17 -7t-7 -16.5t7 -16.5q25 -23 54 -23q37 0 73 35l78 74q26 26 26 63t-26 63zM601 212l-20 -20q-13 -12 -31 -12t-31 12q-13 13 -13 30t13 30l72 70q41 39 64 16q7 -7 17.5 -7
t17 7t6.5 17t-6 16q-27 26 -63 21.5t-69 -37.5l-73 -70q-27 -26 -27 -64q0 -37 27 -62q27 -26 65.5 -26t65.5 26l19 19q7 7 7 16.5t-7 16.5t-17 7.5t-17 -6.5z" />
    <glyph glyph-name="img-nav" unicode="&#xec639;" horiz-adv-x="1030" 
d="M129 549q0 -40 28 -68t68 -28t68 28t28 68t-28 68.5t-68 28.5t-68 -28.5t-28 -68.5zM983 323v-369l-246 268l-144 -145l-275 281l-276 -396v750h391v41h-432v-844h1023v414h-41zM750 292q-115 0 -197 85t-82 205q0 119 82 204t197.5 85t197 -85t81.5 -205
q0 -119 -81.5 -204t-197.5 -85zM750 828q-99 0 -169 -72.5t-70 -174.5t70 -174.5t169 -72.5t169 72.5t70 174.5q0 103 -70 175t-169 72zM872 729q-23 24 -53 25t-52 -21l-21 -20q-6 -6 -6 -14.5t6 -15.5q6 -6 14.5 -6t14.5 6l21 21q21 22 48 -4q11 -10 11 -25.5t-11 -26.5
l-65 -65q-30 -30 -50 -10q-6 6 -14.5 6t-14.5 -6q-5 -6 -5 -14.5t5 -14.5q21 -20 46 -20q30 0 61 30l65 65q23 22 23 55t-23 55zM688 491l-17 -16q-11 -11 -26 -11t-26 11q-11 10 -11 26t11 26l61 61q34 34 54 14q6 -6 14.5 -6t13.5 6q6 6 6 14.5t-6 14.5q-22 22 -52 18.5
t-59 -32.5l-61 -60q-22 -23 -22 -56q0 -32 22 -55q22 -22 55 -22q32 0 55 22l16 17q6 6 6 14.5t-6 15.5q-6 5 -14.5 4.5t-13.5 -6.5z" />
    <glyph glyph-name="rick-text" unicode="&#xec608;" 
d="M0 -33h872v-76h-872v76v0zM721 119h303v75h-303v-75zM0 877v-76h1024v76h-1024zM721 346h303v76h-303v-76zM721 574h303v75h-303v-75zM0 119v530q0 16 11 27t27 11h605q15 0 26 -11t11 -27v-530q0 -16 -11 -27t-26 -11h-605q-16 0 -27 11t-11 27v0zM76 156h529v456h-529
v-456z" />
    <glyph glyph-name="shop-mune" unicode="&#xec650;" horiz-adv-x="1040" 
d="M43 751v-73h960v73h-960zM43 352h960v72h-960v-72zM43 25h960v73h-960v-73z" />
    <glyph glyph-name="button" unicode="&#xec609;" 
d="M896 742q29 0 46.5 -18t17.5 -46v-576q0 -29 -17.5 -46.5t-46.5 -17.5h-768q-29 0 -46.5 17.5t-17.5 46.5v576q0 28 17.5 46t46.5 18h768zM896 806h-768q-53 0 -90.5 -38t-37.5 -90v-576q0 -53 37.5 -90.5t90.5 -37.5h768q53 0 90.5 37.5t37.5 90.5v576q0 52 -37.5 90
t-90.5 38v0zM128 230h768v-64h-768v64z" />
    <glyph glyph-name="release" unicode="&#xec634;" 
d="M1002 880q-21 16 -44 3l-930 -517q-23 -12 -21 -37.5t26 -34.5l247 -92l33 -263q3 -26 27.5 -33.5t41.5 12.5l133 151l187 -179q11 -11 27 -11q6 0 11 1q22 6 28 28l248 930q7 26 -14 42zM142 339l697 387l-506 -459l-1 0.5t-2 0.5zM381 37l-25 197l494 448l-358 -521
q-6 -4 -10 -8zM708 -6l-168 162q-1 0 -1.5 0.5l-0.5 0.5l350 511z" />
    <glyph glyph-name="jigsaw" unicode="&#xec640;" 
d="M838 431q-35 0 -81 -23v149q0 33 -18.5 58.5t-49.5 25.5h-140q16 32 16 70q0 71 -51 121t-123 50q-73 0 -123.5 -49t-50.5 -121q0 -38 16 -71h-140q-31 0 -56 -26t-25 -58v-187q0 -17 15.5 -23t26.5 5q15 14 39.5 22.5t49.5 8.5q51 0 89 -37t38 -87.5t-38.5 -87
t-90.5 -36.5q-24 0 -48 8.5t-39 22.5q-11 11 -26.5 4.5t-15.5 -22.5v-187q0 -29 22.5 -47t58.5 -18h596q32 0 50 17t18 48v145q46 -22 81 -22q72 0 123 50.5t51 122.5t-51 123t-123 51zM838 133q-17 0 -29 4.5t-36 16.5l-30 15t-23.5 -1.5t-11.5 -20.5v-186q0 -6 -1 -8.5
t-5 -4.5t-13 -2h-596q-10 0 -20.5 3.5t-10.5 11.5v141q38 -17 79 -17q73 0 126 51.5t53 122.5q0 72 -52 123t-125 51q-42 0 -81 -18v142q0 11 10.5 22.5t20.5 11.5h187q16 0 22.5 15t-4.5 27q-31 33 -31 79q0 51 36 86t88 35t88 -35.5t36 -86.5q0 -45 -31 -78
q-11 -12 -5 -27t23 -15h187q7 0 13 -11t6 -23v-189q0 -14 11.5 -21t23.5 -1q12 5 30 14q24 13 36 17t29 4q51 0 87.5 -36t36.5 -87.5t-36.5 -88t-87.5 -36.5z" />
    <glyph glyph-name="sale" unicode="&#xec618;" 
d="M626 686q-18 11 -39.5 11t-40.5 -10.5t-30 -29.5q-16 -29 -7.5 -61.5t37.5 -49.5q18 -11 40 -11v0q21 0 40 11t30 30q16 29 7.5 61.5t-37.5 48.5zM610 602q-8 -14 -24 -14q-8 0 -14 4q-10 6 -13 17t2 22q9 14 25 14q8 0 14 -4q10 -6 13 -17.5t-3 -21.5zM994 623l-249 235
l-8 6q-3 3 -7 5q-17 10 -35 5l-332 -79q-29 -7 -44 -33l-306 -534q-10 -17 -5 -36t22 -29l445 -258q10 -7 23 -7q16 0 28 10h443q19 0 33 13.5t14 33.5v617q0 30 -22 51zM851 511l-68 227l169 -160q3 -2 3 -7v-602h-389l279 487q15 26 6 55zM793 486l-300 -522l-421 246
l299 522q2 3 6 4l321 76l95 -318q1 -4 0 -8z" />
    <glyph glyph-name="clear1" unicode="&#xec629;" 
d="M125 710q0 20 14.5 34.5t34.5 14.5h243v48q0 20 14 34.5t34 14.5h97q20 0 34.5 -14.5t14.5 -34.5v-48h242q20 0 34.5 -14.5t14.5 -34.5v-48h-777v48v0zM854 564v-598q0 -20 -14.5 -34.5t-34.5 -14.5h-583q-20 0 -34 14.5t-14 34.5v647h680v-49zM368 467q0 20 -14 34.5
t-34 14.5t-34.5 -14.5t-14.5 -34.5v-404q0 -20 14.5 -34.5t34.5 -14.5t34 14.5t14 34.5v404zM562 467q0 20 -14 34.5t-34 14.5t-34.5 -14.5t-14.5 -34.5v-404q0 -20 14.5 -34.5t34.5 -14.5t34 14.5t14 34.5v404zM756 467q0 20 -14 34.5t-34 14.5t-34.5 -14.5t-14.5 -34.5
v-404q0 -20 14.5 -34.5t34.5 -14.5t34 14.5t14 34.5v404z" />
    <glyph glyph-name="passage" unicode="&#xec635;" 
d="M973 111h-916q-17 0 -29 -12t-12 -29t12 -29t29 -12h916q17 0 29.5 12t12.5 29t-12.5 29t-29.5 12zM511 524h462q17 0 29 12t12 29t-12 29t-29 12h-462q-17 0 -29 -12t-12 -29t12 -29t29 -12zM973 359h-462q-17 0 -29 -12t-12 -29.5t12 -29.5t29 -12h462q17 0 29 12
t12 29.5t-12 29.5t-29 12zM469 676h-175v-445h-74v445h-175v74h424v-74z" />
    <glyph glyph-name="arrow" unicode="&#xec641;" 
d="M770 368q10 10 10 24t-10 24q0 1 -3 2q-1 1 -2 3t-2 3l-451 451q-9 10 -23 10t-24 -10t-10 -24t10 -24l433 -433l-441 -442q-10 -10 -10 -24t10 -25q10 -10 24.5 -10t24.5 10z" />
    <glyph glyph-name="tab-down" unicode="&#xec652;" 
d="M972 -18h-21v16l-188 141l-251 -188l-251 93l-188 -117v-8h-12l-51 -31v752l251 157l251 -94l251 188l251 -188v-753l-42 32v0zM951 687l-188 141l-251 -188l-251 94l-188 -117v-627l188 117l251 -94l251 188l188 -141v627zM763 609q0 13 9 22t22 9t22 -9t9 -22v-251
q0 -13 -9 -22t-22 -9t-22 9t-9 22v251zM543 233q-13 0 -22 9t-9 22v188q0 13 9 22t22 9t22.5 -9t9.5 -22v-188q0 -13 -9.5 -22t-22.5 -9zM293 201q-13 0 -22.5 9.5t-9.5 22.5v313q0 13 9.5 22t22.5 9t22 -9t9 -22v-313q0 -13 -9 -22.5t-22 -9.5z" />
  </font>
</defs>
</svg>
